# xmcd
#
# Track frame offsets: 
#        150
#        18035
#        37380
#        56829
#        74987
#        94530
#        124623
#        137837
#        150932
#        171439
#        188623
#        208859
#        226882
#        232894
#
# Disc length: 3468 seconds
#
# Revision: 0
# Processed by: cddbd v1.5.2PL0 Copyright (c) Steve Scherf et al.
# Submitted via: ExactAudioCopyFreeDBPlugin 1.0
#
DISCID=bf0d8a0e
DTITLE=PorkBelly Futures - PorkBelly Futures
DYEAR=2008
DGENRE=Blues
TTITLE0=Sweet Daddy
TTITLE1=Hie Down, Honey
TTITLE2=Bon Vivant
TTITLE3=You Gotta Love A Train
TTITLE4=Sad Old Love Affair
TTITLE5=March Storm
TTITLE6=I Need My Heart
TTITLE7=Alberta SpringTime
TTITLE8=Ain't For Me To Say 
TTITLE9=You Are All I Need
TTITLE10=Goin' Down
TTITLE11=Steamwhistle
TTITLE12=I'm In Love
TTITLE13=Handsome Devil Ray
EXTD=
EXTT0=
EXTT1=
EXTT2=
EXTT3=
EXTT4=
EXTT5=
EXTT6=
EXTT7=
EXTT8=
EXTT9=
EXTT10=
EXTT11=
EXTT12=
EXTT13=
PLAYORDER=
